<svg id="Layer_1" data-name="Layer 1" xmlns="http://www.w3.org/2000/svg" width="0.99in" height="4.73in" viewBox="0 0 71.12 340.41">
  <defs>
    <style>
      .cls-1 {
        fill: none;
        stroke: #ed1c24;
        stroke-miterlimit: 10;
        stroke-width: 0.25px;
      }
    </style>
  </defs>
  <title>TestBaseHolder_v0.1</title>
  <g>
    <polyline class="cls-1" points="39.81 331.76 39.81 321.84 43.23 321.84 43.23 315.37 39.81 315.37 39.81 311.92 31.31 311.92 31.31 315.37 27.89 315.37 27.89 321.84 31.31 321.84 31.31 331.76"/>
    <polyline class="cls-1" points="39.81 331.78 48.31 331.78 48.31 340.28 70.99 340.28 70.99 0.13 40.52 0.13 40.52 8.1 52.99 8.1 52.99 72.16 18.13 72.16 18.13 8.1 30.6 8.1 30.6 0.13 0.13 0.13 0.13 340.28 22.8 340.28 22.8 331.78 31.31 331.78"/>
  </g>
</svg>
