<svg id="Layer_1" data-name="Layer 1" xmlns="http://www.w3.org/2000/svg" width="0.98in" height="2.17in" viewBox="0 0 70.89 155.89">
  <defs>
    <style>
      .cls-1 {
        fill: none;
        stroke: #ed1c24;
        stroke-miterlimit: 10;
        stroke-width: 0.25px;
      }

      .cls-2 {
        fill: #231f20;
      }
    </style>
  </defs>
  <title>UpperArm_v0.4</title>
  <path class="cls-1" d="M89.33,38.51a9.92,9.92,0,0,1,19.84,0" transform="translate(-82.33 -22.64)"/>
  <path class="cls-1" d="M104.92,78.12a5.67,5.67,0,0,1-11.34,0" transform="translate(-82.33 -22.64)"/>
  <line class="cls-1" x1="7" y1="15.87" x2="11.25" y2="55.48"/>
  <line class="cls-1" x1="26.84" y1="15.87" x2="22.59" y2="55.48"/>
  <path class="cls-1" d="M83.51,38.51a15.74,15.74,0,0,1,31.48,0" transform="translate(-82.33 -22.64)"/>
  <line class="cls-1" x1="1.18" y1="15.87" x2="1.18" y2="109.01"/>
  <line class="cls-1" x1="32.67" y1="15.87" x2="32.67" y2="109.01"/>
  <line class="cls-1" x1="9.74" y1="114" x2="1.18" y2="109.01"/>
  <line class="cls-1" x1="39.34" y1="131.26" x2="24.46" y2="122.58"/>
  <line class="cls-1" x1="47.39" y1="117.52" x2="32.67" y2="109.01"/>
  <path class="cls-1" d="M123.47,150.35" transform="translate(-82.33 -22.64)"/>
  <path class="cls-1" d="M131.49,142.33" transform="translate(-82.33 -22.64)"/>
  <g>
    <path class="cls-2" d="M103.88,122.06l-4.15.86a3.84,3.84,0,0,0,.1-.71A2.06,2.06,0,0,0,99.5,121a1,1,0,0,0-.8-.49.81.81,0,0,0-.67.32,1.3,1.3,0,0,0-.25.85,2.76,2.76,0,0,0,.34,1.21h-2a3.66,3.66,0,0,1-.46-1.75,3.14,3.14,0,0,1,.77-2.18,2.54,2.54,0,0,1,2-.86,2.81,2.81,0,0,1,1.91.71,3.19,3.19,0,0,1,.89,1.59l.37-.1v-2h2.29Z" transform="translate(-82.33 -22.64)"/>
    <path class="cls-2" d="M100.21,118.31H98.66v-2.68h1.55Z" transform="translate(-82.33 -22.64)"/>
    <path class="cls-2" d="M95.88,116v-2.38h5.86v-.44c0-.39-.14-.59-.42-.59s-.45.22-.45.66H98.74v-.46q0-.6-.39-.6a.35.35,0,0,0-.32.15,1,1,0,0,0-.09.5v.41H95.88v-.45a4.25,4.25,0,0,1,.13-1.14,2,2,0,0,1,.43-.79,2.17,2.17,0,0,1,1.75-.76,2,2,0,0,1,2,1.29,2,2,0,0,1,1.68-.89c1.35,0,2,.86,2,2.58V116Z" transform="translate(-82.33 -22.64)"/>
    <path class="cls-2" d="M101.59,107.2c0-1.36-.55-2-1.64-2s-1.74.7-1.74,2.08v.39H95.86c0-.33,0-.57,0-.71a4.12,4.12,0,0,1,1.15-3,4,4,0,0,1,3-1.17,3.65,3.65,0,0,1,3,1.37,5,5,0,0,1,.92,3.19v3.1h-8V108h5.71Z" transform="translate(-82.33 -22.64)"/>
    <path class="cls-2" d="M98.75,103a3,3,0,0,1-2.11-.72,2.71,2.71,0,0,1-.76-2v-.63H98.2v.12a1,1,0,0,0,.19.7,1.09,1.09,0,0,0,.74.18h4.75V103Z" transform="translate(-82.33 -22.64)"/>
  </g>
  <polyline class="cls-1" points="47.31 117.46 57.21 100.3 70.71 108.1 43.22 155.72 29.72 147.92 39.34 131.26"/>
  <polyline class="cls-1" points="24.49 122.54 14.88 138.98 0.17 130.38 9.78 113.94"/>
</svg>
